<?xml version="1.0" encoding="iso-8859-1"?>
<!-- Generator: Adobe Illustrator 16.0.0, SVG Export Plug-In . SVG Version: 6.00 Build 0)  -->
<!DOCTYPE svg PUBLIC "-//W3C//DTD SVG 1.1//EN" "http://www.w3.org/Graphics/SVG/1.1/DTD/svg11.dtd">
<svg version="1.1" id="Capa_1" xmlns="http://www.w3.org/2000/svg" xmlns:xlink="http://www.w3.org/1999/xlink" x="0px" y="0px"
	 width="74px" height="74px" viewBox="0 0 74 74" style="enable-background:new 0 0 74 74;" xml:space="preserve">
<g>
	<g>
		<path d="M62.125,19.688c-6.221,0-11.327,4.809-11.825,10.902c-0.184-0.008-0.364-0.027-0.55-0.027s-0.366,0.019-0.549,0.027
			c-0.497-6.094-5.605-10.902-11.826-10.902c-6.22,0-11.328,4.809-11.826,10.901c-0.183-0.008-0.364-0.027-0.549-0.027
			c-0.439,0-0.87,0.027-1.297,0.073c-0.475-6.115-5.593-10.948-11.828-10.948C5.327,19.688,0,25.016,0,31.563
			s5.327,11.874,11.875,11.874c0.439,0,0.87-0.025,1.297-0.072C13.647,49.479,18.765,54.313,25,54.313
			c6.22,0,11.328-4.81,11.826-10.901c0.183,0.008,0.363,0.026,0.549,0.026s0.366-0.021,0.55-0.026
			c0.496,6.094,5.604,10.901,11.825,10.901s11.328-4.81,11.826-10.901c0.183,0.008,0.363,0.026,0.549,0.026
			C68.673,43.438,74,38.109,74,31.563S68.673,19.688,62.125,19.688z M2,31.563c0-5.445,4.43-9.875,9.875-9.875
			c5.266,0,9.57,4.146,9.848,9.345c-4.618,1.329-8.089,5.384-8.543,10.308c-0.428,0.06-0.862,0.099-1.306,0.099
			C6.429,41.438,2,37.007,2,31.563z M21.606,33.177c-0.585,3.538-3.051,6.438-6.338,7.647
			C15.854,37.287,18.319,34.385,21.606,33.177z M25,52.313c-5.266,0-9.57-4.146-9.848-9.345c4.618-1.329,8.089-5.385,8.543-10.308
			c0.428-0.059,0.862-0.099,1.306-0.099c0.186,0,0.368,0.019,0.552,0.025c0.45,5.218,4.28,9.476,9.286,10.568
			C34.468,48.268,30.202,52.313,25,52.313z M27.605,32.922c3.757,1.031,6.62,4.225,7.165,8.156
			C31.013,40.046,28.15,36.854,27.605,32.922z M36.823,41.41c-0.45-5.216-4.28-9.474-9.286-10.569
			c0.372-5.108,4.636-9.153,9.839-9.153s9.467,4.046,9.84,9.153c-5.006,1.096-8.836,5.354-9.286,10.569
			c-0.185,0.01-0.365,0.027-0.552,0.027C37.191,41.438,37.007,41.419,36.823,41.41z M47.146,32.922
			c-0.545,3.934-3.408,7.125-7.166,8.156C40.525,37.146,43.389,33.953,47.146,32.922z M49.75,52.313
			c-5.202,0-9.467-4.045-9.839-9.153c5.006-1.095,8.836-5.353,9.286-10.568c0.185-0.01,0.365-0.025,0.552-0.025
			s0.368,0.019,0.553,0.025c0.449,5.218,4.279,9.476,9.285,10.568C59.218,48.268,54.952,52.313,49.75,52.313z M52.355,32.922
			c3.756,1.031,6.619,4.225,7.164,8.156C55.764,40.046,52.9,36.854,52.355,32.922z M62.125,41.438c-0.186,0-0.368-0.019-0.552-0.026
			c-0.45-5.216-4.279-9.474-9.286-10.569c0.372-5.108,4.636-9.153,9.839-9.153c5.444,0,9.875,4.43,9.875,9.875
			C72.001,37.007,67.57,41.438,62.125,41.438z"/>
	</g>
</g>
<g>
</g>
<g>
</g>
<g>
</g>
<g>
</g>
<g>
</g>
<g>
</g>
<g>
</g>
<g>
</g>
<g>
</g>
<g>
</g>
<g>
</g>
<g>
</g>
<g>
</g>
<g>
</g>
<g>
</g>
</svg>
